<svg xmlns="http://www.w3.org/2000/svg" width="960" height="720" viewBox="0 0 960 720"><defs><radialGradient id="petal"><stop stop-color="#dc7b4c"/><stop offset=".7" stop-color="#ad4b30"/><stop offset="1" stop-color="#712f24"/></radialGradient></defs><rect width="960" height="720" fill="#273b30"/><path d="M505 760Q440 510 542 197" fill="none" stroke="#7c8860" stroke-width="13"/><path d="M491 534Q250 460 287 359Q478 340 491 534M496 584Q721 374 765 470Q747 623 496 584" fill="#4a674a"/><g transform="translate(521 278)"><ellipse cy="-98" rx="83" ry="162" fill="url(#petal)" transform="rotate(0)" stroke="#df8850" stroke-opacity=".22"/><ellipse cy="-98" rx="83" ry="162" fill="url(#petal)" transform="rotate(45)" stroke="#df8850" stroke-opacity=".22"/><ellipse cy="-98" rx="83" ry="162" fill="url(#petal)" transform="rotate(90)" stroke="#df8850" stroke-opacity=".22"/><ellipse cy="-98" rx="83" ry="162" fill="url(#petal)" transform="rotate(135)" stroke="#df8850" stroke-opacity=".22"/><ellipse cy="-98" rx="83" ry="162" fill="url(#petal)" transform="rotate(180)" stroke="#df8850" stroke-opacity=".22"/><ellipse cy="-98" rx="83" ry="162" fill="url(#petal)" transform="rotate(225)" stroke="#df8850" stroke-opacity=".22"/><ellipse cy="-98" rx="83" ry="162" fill="url(#petal)" transform="rotate(270)" stroke="#df8850" stroke-opacity=".22"/><ellipse cy="-98" rx="83" ry="162" fill="url(#petal)" transform="rotate(315)" stroke="#df8850" stroke-opacity=".22"/><circle r="55" fill="#c3914e"/><circle r="38" fill="#705832"/><circle cx="0" cy="28" r="4" fill="#d1a761"/><circle cx="23.5611875746211" cy="15.128464564307913" r="4" fill="#d1a761"/><circle cx="25.460327951119087" cy="-11.652111423319987" r="4" fill="#d1a761"/><circle cx="3.951360225676282" cy="-27.719789904812473" r="4" fill="#d1a761"/><circle cx="-21.19046986862199" cy="-18.302021384181135" r="4" fill="#d1a761"/><circle cx="-26.849879690567878" cy="7.942541192970335" r="4" fill="#d1a761"/><circle cx="-7.823633949569924" cy="26.88476802621025" r="4" fill="#d1a761"/><circle cx="18.395624764126094" cy="21.10926312161253" r="4" fill="#d1a761"/><circle cx="27.70203090545469" cy="-4.0740009466411795" r="4" fill="#d1a761"/><circle cx="11.539317586769185" cy="-25.511647332770956" r="4" fill="#d1a761"/><circle cx="-15.232591104902355" cy="-23.494002814140668" r="4" fill="#d1a761"/><circle cx="-27.9997257834197" cy="0.12391954366542199" r="4" fill="#d1a761"/><circle cx="-15.024041704012179" cy="23.62791084450978" r="4" fill="#d1a761"/><circle cx="11.764677031145945" cy="25.408509880605493" r="4" fill="#d1a761"/><circle cx="27.73700595945637" cy="3.828642109819341" r="4" fill="#d1a761"/><circle cx="18.20805952439927" cy="-21.271261560046998" r="4" fill="#d1a761"/></g></svg>